<?xml version="1.0" encoding="utf-8"?>
<!-- Uploaded to: SVG Repo, www.svgrepo.com, Generator: SVG Repo Mixer Tools -->
<svg width="800px" height="800px" viewBox="0 0 1024 1024" fill="#000000" class="icon"  version="1.1" xmlns="http://www.w3.org/2000/svg"><path d="M924.979758 936.411451l-67.87396 67.873961c-12.125993 12.061993-47.623972 19.685988-48.685972 19.685988-214.869874 1.811999-421.737753-82.557952-573.765663-234.617863C82.192252 636.919627-2.273699 429.237748 0.0703 213.743875c0-0.126 7.781995-34.62398 19.875988-46.623973L87.820249 99.183942c24.905985-24.873985 72.589957-36.123979 105.995937-24.999985l14.311992 4.811997c33.40598 11.123993 68.30996 47.997972 77.559955 81.933952l34.18598 125.433926c9.279995 33.99998-3.187998 82.371952-28.061984 107.245937l-45.373973 45.373974c44.499974 164.933903 173.837898 294.243828 338.677801 338.803801l45.373974-45.373973c24.875985-24.875985 73.373957-37.311978 107.373937-28.061984l125.433926 34.24998c33.87398 9.187995 70.747959 44.059974 81.935952 77.495955l4.749997 14.311991c11.119993 33.44198-0.128 81.127952-25.003985 106.001938zM575.989963 511.9857h63.997962c0-70.685959-57.309966-127.995925-127.995925-127.995925v63.997963c35.279979 0 63.997963 28.747983 63.997963 63.997962z m255.99185 0c0-176.745896-143.245916-319.991813-319.989813-319.991812v63.999962c141.183917 0 255.99185 114.871933 255.99185 255.99185h63.997963zM511.992 0v63.997963c246.991855 0 447.985738 200.993882 447.985738 447.987737h63.997962C1023.9757 229.243866 794.733834 0 511.992 0z" /></svg>